<svg width="512" height="512" viewBox="0 0 512 512" fill="none" xmlns="http://www.w3.org/2000/svg">
  <defs>
    <linearGradient id="grove-bg" x1="88" y1="64" x2="428" y2="468" gradientUnits="userSpaceOnUse">
      <stop stop-color="#10212E" />
      <stop offset="1" stop-color="#2D7268" />
    </linearGradient>
    <radialGradient id="grove-glow" cx="0" cy="0" r="1" gradientUnits="userSpaceOnUse" gradientTransform="translate(196 138) rotate(47.32) scale(278.12 240.019)">
      <stop stop-color="#FFF8EA" stop-opacity="0.28" />
      <stop offset="1" stop-color="#FFF8EA" stop-opacity="0" />
    </radialGradient>
    <linearGradient id="grove-branch" x1="256" y1="132" x2="256" y2="372" gradientUnits="userSpaceOnUse">
      <stop stop-color="#FFF9EC" />
      <stop offset="1" stop-color="#E9C789" />
    </linearGradient>
    <radialGradient id="grove-leaf-top" cx="0" cy="0" r="1" gradientUnits="userSpaceOnUse" gradientTransform="translate(238 138) rotate(31.89) scale(128.507)">
      <stop stop-color="#EAF7B4" />
      <stop offset="1" stop-color="#77B85A" />
    </radialGradient>
    <radialGradient id="grove-leaf-left" cx="0" cy="0" r="1" gradientUnits="userSpaceOnUse" gradientTransform="translate(160 190) rotate(36.87) scale(116)">
      <stop stop-color="#E6F8C0" />
      <stop offset="1" stop-color="#5DAE72" />
    </radialGradient>
    <radialGradient id="grove-leaf-right" cx="0" cy="0" r="1" gradientUnits="userSpaceOnUse" gradientTransform="translate(312 190) rotate(36.87) scale(116)">
      <stop stop-color="#C8F2E6" />
      <stop offset="1" stop-color="#4A9B8C" />
    </radialGradient>
    <filter id="grove-shadow" x="42" y="34" width="428" height="452" filterUnits="userSpaceOnUse" color-interpolation-filters="sRGB">
      <feFlood flood-opacity="0" result="BackgroundImageFix" />
      <feColorMatrix in="SourceAlpha" type="matrix" values="0 0 0 0 0 0 0 0 0 0 0 0 0 0 0 0 0 0 127 0" result="hardAlpha" />
      <feOffset dy="14" />
      <feGaussianBlur stdDeviation="18" />
      <feColorMatrix type="matrix" values="0 0 0 0 0.0156863 0 0 0 0 0.121569 0 0 0 0 0.156863 0 0 0 0.24 0" />
      <feBlend mode="normal" in2="BackgroundImageFix" result="effect1_dropShadow_1_1" />
      <feBlend mode="normal" in="SourceGraphic" in2="effect1_dropShadow_1_1" result="shape" />
    </filter>
  </defs>

  <rect x="28" y="28" width="456" height="456" rx="116" fill="url(#grove-bg)" />
  <rect x="28" y="28" width="456" height="456" rx="116" fill="url(#grove-glow)" />
  <rect x="40" y="40" width="432" height="432" rx="104" stroke="#FFFFFF" stroke-opacity="0.16" stroke-width="2" />

  <g filter="url(#grove-shadow)">
    <path
      d="M256 352V266M256 252V170M256 244L186 204M256 244L326 204"
      stroke="url(#grove-branch)"
      stroke-width="26"
      stroke-linecap="round"
      stroke-linejoin="round"
    />
    <path
      d="M162 356C190 330 220 316 256 316C292 316 322 330 350 356"
      stroke="#F2BE68"
      stroke-width="18"
      stroke-linecap="round"
      opacity="0.92"
    />

    <circle cx="256" cy="144" r="70" fill="url(#grove-leaf-top)" />
    <circle cx="186" cy="204" r="58" fill="url(#grove-leaf-left)" />
    <circle cx="326" cy="204" r="58" fill="url(#grove-leaf-right)" />

    <circle cx="226" cy="118" r="14" fill="#FFFCEE" fill-opacity="0.45" />
    <circle cx="161" cy="182" r="12" fill="#FFFCEE" fill-opacity="0.42" />
    <circle cx="298" cy="180" r="12" fill="#FFFCEE" fill-opacity="0.36" />

    <circle cx="256" cy="144" r="15" fill="#FFF9EC" />
    <circle cx="186" cy="204" r="13" fill="#FFF9EC" />
    <circle cx="326" cy="204" r="13" fill="#FFF9EC" />
  </g>
</svg>
